# xmcd
#
# Track frame offsets: 
#        150
#        13257
#        28065
#        40647
#        60042
#        71627
#        85802
#        98562
#        110130
#        122682
#        134337
#        149630
#        161472
#        178240
#        193472
#        205242
#
# Disc length: 2946 seconds
#
# Revision: 2
# Processed by: cddbd v1.5.2PL0 Copyright (c) Steve Scherf et al.
# Submitted via: ExactAudioCopyFreeDBPlugin 1.0
#
DISCID=e70b8010
DTITLE=Tremeloes - silence is golden
DYEAR=2002
DGENRE=Rock
TTITLE0=Even the bad times are good
TTITLE1=Silence is golden
TTITLE2=Helulé, helulé
TTITLE3=Never win
TTITLE4=Once on a Sunday morning - Cuando Sali de Cuba
TTITLE5=African lullaby
TTITLE6=Hello world
TTITLE7=My little lady
TTITLE8=Here comes my baby
TTITLE9=I like it that way
TTITLE10=Someone, Someone
TTITLE11=And then I kissed her
TTITLE12=Lean on me baby
TTITLE13=St. Tropez
TTITLE14=Me and my life
TTITLE15=Call me number one
EXTD=
EXTT0=
EXTT1=
EXTT2=
EXTT3=
EXTT4=
EXTT5=
EXTT6=
EXTT7=
EXTT8=
EXTT9=
EXTT10=
EXTT11=
EXTT12=
EXTT13=
EXTT14=
EXTT15=
PLAYORDER=
